<svg width="346" height="129" viewBox="0 0 346 129" fill="none" xmlns="http://www.w3.org/2000/svg">
<g filter="url(#filter0_d_317_227)">
<path d="M42.35 53.75C40.0167 53.75 37.825 53.3417 35.775 52.525C33.7417 51.6917 31.95 50.475 30.4 48.875C28.8667 47.275 27.6667 45.3167 26.8 43C25.9333 40.6667 25.5 38 25.5 35C25.5 31.0667 26.2333 27.7083 27.7 24.925C29.1667 22.125 31.175 19.9833 33.725 18.5C36.275 17 39.15 16.25 42.35 16.25C46.7833 16.25 50.2917 17.2833 52.875 19.35C55.475 21.4 57.2333 24.2833 58.15 28L52 28.975C51.3167 26.8417 50.2 25.1417 48.65 23.875C47.1 22.5917 45.125 21.95 42.725 21.95C40.3083 21.9167 38.3 22.4417 36.7 23.525C35.1 24.6083 33.8917 26.1333 33.075 28.1C32.275 30.0667 31.875 32.3667 31.875 35C31.875 37.6333 32.275 39.925 33.075 41.875C33.875 43.8083 35.075 45.3167 36.675 46.4C38.2917 47.4833 40.3083 48.0417 42.725 48.075C44.5417 48.0917 46.1333 47.7667 47.5 47.1C48.8667 46.4167 49.9833 45.3917 50.85 44.025C51.7167 42.6417 52.3 40.9167 52.6 38.85H46.25V34.125H59C59.0333 34.3917 59.0583 34.7833 59.075 35.3C59.0917 35.8167 59.1 36.125 59.1 36.225C59.1 39.625 58.425 42.65 57.075 45.3C55.7417 47.9333 53.825 50 51.325 51.5C48.825 53 45.8333 53.75 42.35 53.75ZM62.6211 53V26H67.9461V32.575L67.2961 31.725C67.6294 30.825 68.0711 30.0083 68.6211 29.275C69.1878 28.525 69.8628 27.9083 70.6461 27.425C71.3128 26.975 72.0461 26.625 72.8461 26.375C73.6628 26.1083 74.4961 25.95 75.3461 25.9C76.1961 25.8333 77.0211 25.8667 77.8211 26V31.625C77.0211 31.3917 76.0961 31.3167 75.0461 31.4C74.0128 31.4833 73.0794 31.775 72.2461 32.275C71.4128 32.725 70.7294 33.3 70.1961 34C69.6794 34.7 69.2961 35.5 69.0461 36.4C68.7961 37.2833 68.6711 38.2417 68.6711 39.275V53H62.6211ZM92.8785 53.75C90.1452 53.75 87.7452 53.1583 85.6785 51.975C83.6118 50.7917 81.9952 49.15 80.8285 47.05C79.6785 44.95 79.1035 42.5333 79.1035 39.8C79.1035 36.85 79.6702 34.2917 80.8035 32.125C81.9368 29.9417 83.5118 28.25 85.5285 27.05C87.5452 25.85 89.8785 25.25 92.5285 25.25C95.3285 25.25 97.7035 25.9083 99.6535 27.225C101.62 28.525 103.079 30.3667 104.029 32.75C104.979 35.1333 105.337 37.9417 105.104 41.175H99.1285V38.975C99.1119 36.0417 98.5952 33.9 97.5785 32.55C96.5618 31.2 94.9618 30.525 92.7785 30.525C90.3118 30.525 88.4785 31.2917 87.2785 32.825C86.0785 34.3417 85.4785 36.5667 85.4785 39.5C85.4785 42.2333 86.0785 44.35 87.2785 45.85C88.4785 47.35 90.2285 48.1 92.5285 48.1C94.0118 48.1 95.2868 47.775 96.3535 47.125C97.4368 46.4583 98.2702 45.5 98.8535 44.25L104.804 46.05C103.77 48.4833 102.17 50.375 100.004 51.725C97.8535 53.075 95.4785 53.75 92.8785 53.75ZM83.5785 41.175V36.625H102.154V41.175H83.5785ZM116.243 53.75C114.293 53.75 112.643 53.3833 111.293 52.65C109.943 51.9 108.918 50.9083 108.218 49.675C107.535 48.4417 107.193 47.0833 107.193 45.6C107.193 44.3 107.41 43.1333 107.843 42.1C108.277 41.05 108.943 40.15 109.843 39.4C110.743 38.6333 111.91 38.0083 113.343 37.525C114.427 37.175 115.693 36.8583 117.143 36.575C118.61 36.2917 120.193 36.0333 121.893 35.8C123.61 35.55 125.402 35.2833 127.268 35L125.118 36.225C125.135 34.3583 124.718 32.9833 123.868 32.1C123.018 31.2167 121.585 30.775 119.568 30.775C118.352 30.775 117.177 31.0583 116.043 31.625C114.91 32.1917 114.118 33.1667 113.668 34.55L108.168 32.825C108.835 30.5417 110.102 28.7083 111.968 27.325C113.852 25.9417 116.385 25.25 119.568 25.25C121.968 25.25 124.077 25.6417 125.893 26.425C127.727 27.2083 129.085 28.4917 129.968 30.275C130.452 31.225 130.743 32.2 130.843 33.2C130.943 34.1833 130.993 35.2583 130.993 36.425V53H125.718V47.15L126.593 48.1C125.377 50.05 123.952 51.4833 122.318 52.4C120.702 53.3 118.677 53.75 116.243 53.75ZM117.443 48.95C118.81 48.95 119.977 48.7083 120.943 48.225C121.91 47.7417 122.677 47.15 123.243 46.45C123.827 45.75 124.218 45.0917 124.418 44.475C124.735 43.7083 124.91 42.8333 124.943 41.85C124.993 40.85 125.018 40.0417 125.018 39.425L126.868 39.975C125.052 40.2583 123.493 40.5083 122.193 40.725C120.893 40.9417 119.777 41.15 118.843 41.35C117.91 41.5333 117.085 41.7417 116.368 41.975C115.668 42.225 115.077 42.5167 114.593 42.85C114.11 43.1833 113.735 43.5667 113.468 44C113.218 44.4333 113.093 44.9417 113.093 45.525C113.093 46.1917 113.26 46.7833 113.593 47.3C113.927 47.8 114.41 48.2 115.043 48.5C115.693 48.8 116.493 48.95 117.443 48.95ZM151.827 53C150.044 53.3333 148.294 53.475 146.577 53.425C144.877 53.3917 143.352 53.0833 142.002 52.5C140.652 51.9 139.627 50.9583 138.927 49.675C138.31 48.5083 137.985 47.3167 137.952 46.1C137.919 44.8833 137.902 43.5083 137.902 41.975V18.5H143.902V41.625C143.902 42.7083 143.91 43.6583 143.927 44.475C143.96 45.2917 144.135 45.9583 144.452 46.475C145.052 47.475 146.01 48.0333 147.327 48.15C148.644 48.2667 150.144 48.2 151.827 47.95V53ZM133.002 30.725V26H151.827V30.725H133.002ZM179.868 53.75C176.268 53.75 173.184 52.9667 170.618 51.4C168.051 49.8167 166.076 47.6167 164.693 44.8C163.326 41.9833 162.643 38.7167 162.643 35C162.643 31.2833 163.326 28.0167 164.693 25.2C166.076 22.3833 168.051 20.1917 170.618 18.625C173.184 17.0417 176.268 16.25 179.868 16.25C184.018 16.25 187.476 17.2917 190.243 19.375C193.009 21.4417 194.951 24.2333 196.068 27.75L189.993 29.425C189.293 27.075 188.101 25.2417 186.418 23.925C184.734 22.5917 182.551 21.925 179.868 21.925C177.451 21.925 175.434 22.4667 173.818 23.55C172.218 24.6333 171.009 26.1583 170.193 28.125C169.393 30.075 168.984 32.3667 168.968 35C168.968 37.6333 169.368 39.9333 170.168 41.9C170.984 43.85 172.201 45.3667 173.818 46.45C175.434 47.5333 177.451 48.075 179.868 48.075C182.551 48.075 184.734 47.4083 186.418 46.075C188.101 44.7417 189.293 42.9083 189.993 40.575L196.068 42.25C194.951 45.7667 193.009 48.5667 190.243 50.65C187.476 52.7167 184.018 53.75 179.868 53.75ZM211.982 53.75C209.282 53.75 206.923 53.1417 204.907 51.925C202.89 50.7083 201.323 49.0333 200.207 46.9C199.107 44.75 198.557 42.2833 198.557 39.5C198.557 36.6667 199.123 34.1833 200.257 32.05C201.39 29.9167 202.965 28.25 204.982 27.05C206.998 25.85 209.332 25.25 211.982 25.25C214.698 25.25 217.065 25.8583 219.082 27.075C221.098 28.2917 222.665 29.975 223.782 32.125C224.898 34.2583 225.457 36.7167 225.457 39.5C225.457 42.3 224.89 44.775 223.757 46.925C222.64 49.0583 221.073 50.7333 219.057 51.95C217.04 53.15 214.682 53.75 211.982 53.75ZM211.982 48.1C214.382 48.1 216.165 47.3 217.332 45.7C218.498 44.1 219.082 42.0333 219.082 39.5C219.082 36.8833 218.49 34.8 217.307 33.25C216.123 31.6833 214.348 30.9 211.982 30.9C210.365 30.9 209.032 31.2667 207.982 32C206.948 32.7167 206.182 33.725 205.682 35.025C205.182 36.3083 204.932 37.8 204.932 39.5C204.932 42.1167 205.523 44.2083 206.707 45.775C207.907 47.325 209.665 48.1 211.982 48.1ZM231.815 53V25.575C231.815 24.8917 231.84 24.1417 231.89 23.325C231.94 22.4917 232.082 21.6667 232.315 20.85C232.548 20.0333 232.973 19.2917 233.59 18.625C234.357 17.775 235.182 17.1917 236.065 16.875C236.965 16.5417 237.848 16.3583 238.715 16.325C239.582 16.275 240.34 16.25 240.99 16.25H244.365V21.15H241.24C240.09 21.15 239.232 21.4417 238.665 22.025C238.115 22.5917 237.84 23.3417 237.84 24.275V53H231.815ZM227.465 30.725V26H244.365V30.725H227.465ZM248.64 53V25.575C248.64 24.8917 248.665 24.1417 248.715 23.325C248.765 22.4917 248.907 21.6667 249.14 20.85C249.373 20.0333 249.798 19.2917 250.415 18.625C251.182 17.775 252.007 17.1917 252.89 16.875C253.79 16.5417 254.673 16.3583 255.54 16.325C256.407 16.275 257.165 16.25 257.815 16.25H261.19V21.15H258.065C256.915 21.15 256.057 21.4417 255.49 22.025C254.94 22.5917 254.665 23.3417 254.665 24.275V53H248.64ZM244.29 30.725V26H261.19V30.725H244.29ZM275.005 53.75C272.272 53.75 269.872 53.1583 267.805 51.975C265.739 50.7917 264.122 49.15 262.955 47.05C261.805 44.95 261.23 42.5333 261.23 39.8C261.23 36.85 261.797 34.2917 262.93 32.125C264.064 29.9417 265.639 28.25 267.655 27.05C269.672 25.85 272.005 25.25 274.655 25.25C277.455 25.25 279.83 25.9083 281.78 27.225C283.747 28.525 285.205 30.3667 286.155 32.75C287.105 35.1333 287.464 37.9417 287.23 41.175H281.255V38.975C281.239 36.0417 280.722 33.9 279.705 32.55C278.689 31.2 277.089 30.525 274.905 30.525C272.439 30.525 270.605 31.2917 269.405 32.825C268.205 34.3417 267.605 36.5667 267.605 39.5C267.605 42.2333 268.205 44.35 269.405 45.85C270.605 47.35 272.355 48.1 274.655 48.1C276.139 48.1 277.414 47.775 278.48 47.125C279.564 46.4583 280.397 45.5 280.98 44.25L286.93 46.05C285.897 48.4833 284.297 50.375 282.13 51.725C279.98 53.075 277.605 53.75 275.005 53.75ZM265.705 41.175V36.625H284.28V41.175H265.705ZM303.584 53.75C300.85 53.75 298.45 53.1583 296.384 51.975C294.317 50.7917 292.7 49.15 291.534 47.05C290.384 44.95 289.809 42.5333 289.809 39.8C289.809 36.85 290.375 34.2917 291.509 32.125C292.642 29.9417 294.217 28.25 296.234 27.05C298.25 25.85 300.584 25.25 303.234 25.25C306.034 25.25 308.409 25.9083 310.359 27.225C312.325 28.525 313.784 30.3667 314.734 32.75C315.684 35.1333 316.042 37.9417 315.809 41.175H309.834V38.975C309.817 36.0417 309.3 33.9 308.284 32.55C307.267 31.2 305.667 30.525 303.484 30.525C301.017 30.525 299.184 31.2917 297.984 32.825C296.784 34.3417 296.184 36.5667 296.184 39.5C296.184 42.2333 296.784 44.35 297.984 45.85C299.184 47.35 300.934 48.1 303.234 48.1C304.717 48.1 305.992 47.775 307.059 47.125C308.142 46.4583 308.975 45.5 309.559 44.25L315.509 46.05C314.475 48.4833 312.875 50.375 310.709 51.725C308.559 53.075 306.184 53.75 303.584 53.75ZM294.284 41.175V36.625H312.859V41.175H294.284Z" fill="white"/>
</g>
<g filter="url(#filter1_d_317_227)">
<path d="M19 109.25L17.5858 110.664L18.9953 112.074L20.4095 110.669L19 109.25ZM7 97.25L5.58579 95.8358L4.17157 97.25L5.58579 98.6642L7 97.25ZM19 85.25L20.4095 83.8311L18.9953 82.4263L17.5858 83.8358L19 85.25ZM22.75 88.975L24.1409 90.4121L25.6066 88.9936L24.1595 87.5561L22.75 88.975ZM14.2 97.25L12.8091 95.8129L11.3242 97.25L12.8091 98.6871L14.2 97.25ZM22.75 105.525L24.1595 106.944L25.6066 105.506L24.1409 104.088L22.75 105.525ZM20.4142 107.836L8.41421 95.8358L5.58579 98.6642L17.5858 110.664L20.4142 107.836ZM8.41421 98.6642L20.4142 86.6642L17.5858 83.8358L5.58579 95.8358L8.41421 98.6642ZM17.5905 86.6689L21.3405 90.3939L24.1595 87.5561L20.4095 83.8311L17.5905 86.6689ZM21.3591 87.5379L12.8091 95.8129L15.5909 98.6871L24.1409 90.4121L21.3591 87.5379ZM12.8091 98.6871L21.3591 106.962L24.1409 104.088L15.5909 95.8129L12.8091 98.6871ZM21.3405 104.106L17.5905 107.831L20.4095 110.669L24.1595 106.944L21.3405 104.106ZM42.1598 112.525L41.4013 114.376L41.4104 114.379L41.4196 114.383L42.1598 112.525ZM36.7848 108.875L35.3408 110.259L35.3483 110.267L36.7848 108.875ZM33.1848 103L31.3099 103.696L31.3116 103.701L33.1848 103ZM34.0848 84.925L35.8541 85.8574L35.8564 85.853L34.0848 84.925ZM40.1098 78.5L41.1154 80.2288L41.1238 80.2239L40.1098 78.5ZM59.2598 79.35L58.0104 80.9117L58.0159 80.9162L58.0215 80.9205L59.2598 79.35ZM64.5348 88L64.8479 89.9753L66.9978 89.6345L66.4766 87.5211L64.5348 88ZM58.3848 88.975L56.4801 89.5851L57.0034 91.219L58.6979 90.9503L58.3848 88.975ZM55.0348 83.875L53.7593 85.4155L53.7692 85.4237L55.0348 83.875ZM49.1098 81.95L49.0822 83.9498L49.096 83.95H49.1098V81.95ZM43.0848 83.525L44.2061 85.1811L43.0848 83.525ZM39.4598 88.1L37.6127 87.333L37.6099 87.3397L37.6072 87.3464L39.4598 88.1ZM39.4598 101.875L37.6094 102.634L37.6117 102.64L39.4598 101.875ZM43.0598 106.4L41.9384 108.056L41.9464 108.061L43.0598 106.4ZM49.1098 108.075L49.0822 110.075L49.0914 110.075L49.1098 108.075ZM53.8848 107.1L54.7616 108.898L54.7704 108.893L54.7792 108.889L53.8848 107.1ZM57.2348 104.025L58.9238 105.096L58.9296 105.087L57.2348 104.025ZM58.9848 98.85L60.964 99.1373L61.2961 96.85H58.9848V98.85ZM52.6348 98.85H50.6348V100.85H52.6348V98.85ZM52.6348 94.125V92.125H50.6348V94.125H52.6348ZM65.3848 94.125L67.3693 93.8769L67.1503 92.125H65.3848V94.125ZM65.4598 95.3L67.4587 95.2355L67.4587 95.2355L65.4598 95.3ZM63.4598 105.3L61.6777 104.392L61.6755 104.397L63.4598 105.3ZM57.7098 111.5L58.7388 113.215L57.7098 111.5ZM48.7348 111.75C46.6402 111.75 44.7011 111.385 42.8999 110.667L41.4196 114.383C43.7184 115.299 46.1627 115.75 48.7348 115.75V111.75ZM42.9182 110.674C41.1437 109.947 39.582 108.888 38.2212 107.483L35.3483 110.267C37.0875 112.062 39.1092 113.436 41.4013 114.376L42.9182 110.674ZM38.2287 107.491C36.9041 106.109 35.8405 104.391 35.058 102.299L31.3116 103.701C32.2623 106.242 33.5988 108.441 35.3408 110.259L38.2287 107.491ZM35.0596 102.304C34.2908 100.234 33.8848 97.8097 33.8848 95H29.8848C29.8848 98.1903 30.3454 101.1 31.3099 103.696L35.0596 102.304ZM33.8848 95C33.8848 91.3118 34.5722 88.2902 35.8541 85.8574L32.3154 83.9926C30.664 87.1265 29.8848 90.8215 29.8848 95H33.8848ZM35.8564 85.853C37.1613 83.3619 38.9145 81.509 41.1154 80.2288L39.1041 76.7712C36.205 78.4576 33.9416 80.8881 32.3131 83.997L35.8564 85.853ZM41.1238 80.2239C43.3415 78.9193 45.8613 78.25 48.7348 78.25V74.25C45.2083 74.25 41.978 75.0807 39.0957 76.7761L41.1238 80.2239ZM48.7348 78.25C52.8683 78.25 55.8859 79.2121 58.0104 80.9117L60.5092 77.7883C57.467 75.3545 53.4679 74.25 48.7348 74.25V78.25ZM58.0215 80.9205C60.219 82.6532 61.7654 85.1238 62.593 88.4789L66.4766 87.5211C65.4708 83.4429 63.5005 80.1468 60.4981 77.7795L58.0215 80.9205ZM64.2216 86.0247L58.0716 86.9997L58.6979 90.9503L64.8479 89.9753L64.2216 86.0247ZM60.2894 88.3649C59.5027 85.9088 58.1844 83.866 56.3003 82.3263L53.7692 85.4237C54.9851 86.4173 55.9001 87.7745 56.4801 89.5851L60.2894 88.3649ZM56.3102 82.3345C54.3355 80.6995 51.8818 79.95 49.1098 79.95V83.95C51.1377 83.95 52.634 84.4838 53.7593 85.4155L56.3102 82.3345ZM49.1373 79.9502C46.4148 79.9126 43.9787 80.5044 41.9635 81.8689L44.2061 85.1811C45.3908 84.3789 46.9714 83.9207 49.0822 83.9498L49.1373 79.9502ZM41.9635 81.8689C40.0072 83.1935 38.5633 85.0437 37.6127 87.333L41.3068 88.867C41.9895 87.2229 42.9624 86.0232 44.2061 85.1811L41.9635 81.8689ZM37.6072 87.3464C36.6895 89.6024 36.2598 92.1684 36.2598 95H40.2598C40.2598 92.565 40.63 90.531 41.3124 88.8536L37.6072 87.3464ZM36.2598 95C36.2598 97.831 36.6893 100.391 37.6094 102.634L41.3101 101.116C40.6302 99.4587 40.2598 97.4356 40.2598 95H36.2598ZM37.6117 102.64C38.5485 104.904 39.9872 106.735 41.9384 108.056L44.1811 104.744C42.9323 103.898 41.971 102.713 41.3078 101.11L37.6117 102.64ZM41.9464 108.061C43.9546 109.407 46.3722 110.037 49.0822 110.075L49.1373 106.075C47.014 106.046 45.3983 105.56 44.1731 104.739L41.9464 108.061ZM49.0914 110.075C51.1583 110.094 53.0671 109.724 54.7616 108.898L53.0079 105.302C51.9691 105.809 50.6946 106.089 49.1281 106.075L49.0914 110.075ZM54.7792 108.889C56.4905 108.033 57.8744 106.751 58.9238 105.096L55.5457 102.954C54.8618 104.032 54.0124 104.8 52.9903 105.311L54.7792 108.889ZM58.9296 105.087C59.979 103.412 60.6348 101.405 60.964 99.1373L57.0055 98.5627C56.7347 100.428 56.2239 101.871 55.5399 102.963L58.9296 105.087ZM58.9848 96.85H52.6348V100.85H58.9848V96.85ZM54.6348 98.85V94.125H50.6348V98.85H54.6348ZM52.6348 96.125H65.3848V92.125H52.6348V96.125ZM63.4002 94.3731C63.4219 94.5463 63.4447 94.8642 63.4608 95.3645L67.4587 95.2355C67.4415 94.7024 67.4143 94.237 67.3693 93.8769L63.4002 94.3731ZM63.4608 95.3645C63.4691 95.6213 63.4752 95.8236 63.4792 95.9728C63.4813 96.0474 63.4827 96.1067 63.4836 96.1517C63.4841 96.1742 63.4844 96.1918 63.4846 96.2051C63.4848 96.2192 63.4848 96.225 63.4848 96.225H67.4848C67.4848 96.0843 67.4748 95.7348 67.4587 95.2355L63.4608 95.3645ZM63.4848 96.225C63.4848 99.3549 62.8651 102.061 61.6777 104.392L65.2418 106.208C66.7544 103.239 67.4848 99.8951 67.4848 96.225H63.4848ZM61.6755 104.397C60.5102 106.698 58.8533 108.481 56.6808 109.785L58.7388 113.215C61.5662 111.519 63.7427 109.169 65.2441 106.203L61.6755 104.397ZM56.6808 109.785C54.5473 111.065 51.9266 111.75 48.7348 111.75V115.75C52.5096 115.75 55.8722 114.935 58.7388 113.215L56.6808 109.785ZM69.0059 113H67.0059V115H69.0059V113ZM69.0059 86V84H67.0059V86H69.0059ZM74.3309 86H76.3309V84H74.3309V86ZM74.3309 92.575L72.7421 93.7899L76.3309 98.4828V92.575H74.3309ZM73.6809 91.725L71.8054 91.0304L71.4225 92.0642L72.0921 92.9399L73.6809 91.725ZM75.0059 89.275L73.4101 88.0693L73.4059 88.075L75.0059 89.275ZM77.0309 87.425L78.0811 89.1271L78.1159 89.1056L78.1498 89.0827L77.0309 87.425ZM79.2309 86.375L79.8274 88.284L79.8396 88.2802L79.8517 88.2762L79.2309 86.375ZM81.7309 85.9L81.8483 87.8965L81.8678 87.8954L81.8872 87.8939L81.7309 85.9ZM84.2059 86H86.2059V84.3057L84.5347 84.0272L84.2059 86ZM84.2059 91.625L83.6459 93.545L86.2059 94.2917V91.625H84.2059ZM81.4309 91.4L81.2726 89.4063L81.2701 89.4065L81.4309 91.4ZM78.6309 92.275L79.5812 94.0348L79.621 94.0133L79.6599 93.99L78.6309 92.275ZM76.5809 94L74.99 92.7879L74.9808 92.8L74.9717 92.8123L76.5809 94ZM75.4309 96.4L77.3553 96.9446L77.3579 96.9353L75.4309 96.4ZM75.0559 113V115H77.0559V113H75.0559ZM71.0059 113V86H67.0059V113H71.0059ZM69.0059 88H74.3309V84H69.0059V88ZM72.3309 86V92.575H76.3309V86H72.3309ZM75.9196 91.3601L75.2696 90.5101L72.0921 92.9399L72.7421 93.7899L75.9196 91.3601ZM75.5564 92.4196C75.8259 91.692 76.1769 91.0469 76.6059 90.475L73.4059 88.075C72.7348 88.9697 72.2025 89.958 71.8054 91.0304L75.5564 92.4196ZM76.6016 90.4807C77.022 89.9242 77.5133 89.4774 78.0811 89.1271L75.9806 85.7229C74.9817 86.3393 74.123 87.1258 73.4101 88.0693L76.6016 90.4807ZM78.1498 89.0827C78.6488 88.7459 79.205 88.4785 79.8274 88.284L78.6343 84.466C77.6567 84.7715 76.7463 85.2041 75.9119 85.7673L78.1498 89.0827ZM79.8517 88.2762C80.5068 88.0623 81.171 87.9364 81.8483 87.8965L81.6134 83.9034C80.5907 83.9636 79.5882 84.1544 78.6101 84.4738L79.8517 88.2762ZM81.8872 87.8939C82.5835 87.8393 83.2453 87.8675 83.8771 87.9728L84.5347 84.0272C83.5664 83.8658 82.5782 83.8274 81.5745 83.9061L81.8872 87.8939ZM82.2059 86V91.625H86.2059V86H82.2059ZM84.7659 89.705C83.6805 89.3884 82.5033 89.3086 81.2726 89.4063L81.5891 93.3937C82.4584 93.3247 83.1312 93.3949 83.6459 93.545L84.7659 89.705ZM81.2701 89.4065C79.9507 89.5129 78.7168 89.8911 77.6019 90.56L79.6599 93.99C80.2116 93.6589 80.8443 93.4538 81.5916 93.3935L81.2701 89.4065ZM77.6806 90.5152C76.6166 91.0898 75.7084 91.8451 74.99 92.7879L78.1717 95.2121C78.52 94.7549 78.9785 94.3602 79.5812 94.0348L77.6806 90.5152ZM74.9717 92.8123C74.2998 93.7226 73.8143 94.7471 73.5038 95.8647L77.3579 96.9353C77.5474 96.2529 77.8286 95.6774 78.19 95.1877L74.9717 92.8123ZM73.5064 95.8554C73.2005 96.9365 73.0559 98.0802 73.0559 99.275H77.0559C77.0559 98.4031 77.1613 97.6302 77.3553 96.9446L73.5064 95.8554ZM73.0559 99.275V113H77.0559V99.275H73.0559ZM75.0559 111H69.0059V115H75.0559V111ZM92.0633 111.975L93.0571 110.239L92.0633 111.975ZM87.2133 107.05L85.4591 108.011L85.465 108.021L87.2133 107.05ZM87.1883 92.125L88.9605 93.052L88.9634 93.0464L87.1883 92.125ZM91.9133 87.05L90.8906 85.3313L91.9133 87.05ZM106.038 87.225L104.919 88.8825L104.927 88.888L104.935 88.8934L106.038 87.225ZM110.413 92.75L108.555 93.4905L110.413 92.75ZM111.488 101.175V103.175H113.349L113.483 101.319L111.488 101.175ZM105.513 101.175H103.513V103.175H105.513V101.175ZM105.513 98.975H107.513L107.513 98.9636L105.513 98.975ZM103.963 92.55L105.561 91.3468L103.963 92.55ZM93.6633 92.825L95.2317 94.066L95.2383 94.0576L93.6633 92.825ZM93.6633 105.85L92.1015 107.099L93.6633 105.85ZM102.738 107.125L103.779 108.833L103.786 108.828L102.738 107.125ZM105.238 104.25L105.817 102.336L104.159 101.834L103.426 103.404L105.238 104.25ZM111.188 106.05L113.029 106.832L113.9 104.781L111.767 104.136L111.188 106.05ZM106.388 111.725L105.331 110.028L105.325 110.031L106.388 111.725ZM89.9633 101.175H87.9633V103.175H89.9633V101.175ZM89.9633 96.625V94.625H87.9633V96.625H89.9633ZM108.538 96.625H110.538V94.625H108.538V96.625ZM108.538 101.175V103.175H110.538V101.175H108.538ZM99.2633 111.75C96.8264 111.75 94.7789 111.225 93.0571 110.239L91.0695 113.711C93.481 115.091 96.2335 115.75 99.2633 115.75V111.75ZM93.0571 110.239C91.3098 109.239 89.9528 107.863 88.9616 106.079L85.465 108.021C86.8071 110.437 88.6834 112.344 91.0695 113.711L93.0571 110.239ZM88.9675 106.089C88.0004 104.323 87.4883 102.246 87.4883 99.8H83.4883C83.4883 102.821 84.1262 105.577 85.4591 108.011L88.9675 106.089ZM87.4883 99.8C87.4883 97.1068 88.0047 94.8793 88.9605 93.052L85.4161 91.198C84.1052 93.7041 83.4883 96.5932 83.4883 99.8H87.4883ZM88.9634 93.0464C89.9338 91.177 91.2553 89.7688 92.936 88.7687L90.8906 85.3313C88.5379 86.7312 86.7095 88.7063 85.4132 91.2036L88.9634 93.0464ZM92.936 88.7687C94.6048 87.7757 96.5757 87.25 98.9133 87.25V83.25C95.9508 83.25 93.2551 83.9243 90.8906 85.3313L92.936 88.7687ZM98.9133 87.25C101.392 87.25 103.358 87.8287 104.919 88.8825L107.157 85.5675C104.818 83.988 102.035 83.25 98.9133 83.25V87.25ZM104.935 88.8934C106.531 89.9484 107.743 91.4512 108.555 93.4905L112.271 92.0095C111.184 89.2822 109.478 87.1016 107.141 85.5566L104.935 88.8934ZM108.555 93.4905C109.368 95.5292 109.711 98.022 109.493 101.031L113.483 101.319C113.733 97.8614 113.359 94.7374 112.271 92.0095L108.555 93.4905ZM111.488 99.175H105.513V103.175H111.488V99.175ZM107.513 101.175V98.975H103.513V101.175H107.513ZM107.513 98.9636C107.496 95.8828 106.966 93.2129 105.561 91.3468L102.366 93.7532C102.994 94.5871 103.497 96.2005 103.513 98.9864L107.513 98.9636ZM105.561 91.3468C104.06 89.3538 101.774 88.525 99.1633 88.525V92.525C100.919 92.525 101.833 93.0462 102.366 93.7532L105.561 91.3468ZM99.1633 88.525C96.2614 88.525 93.7659 89.4488 92.0883 91.5924L95.2383 94.0576C95.9607 93.1346 97.1318 92.525 99.1633 92.525V88.525ZM92.0948 91.584C90.5034 93.5955 89.8633 96.3379 89.8633 99.5H93.8633C93.8633 96.7954 94.4232 95.0879 95.2317 94.066L92.0948 91.584ZM89.8633 99.5C89.8633 102.5 90.5194 105.122 92.1015 107.099L95.225 104.601C94.4072 103.578 93.8633 101.967 93.8633 99.5H89.8633ZM92.1015 107.099C93.7572 109.169 96.139 110.1 98.9133 110.1V106.1C97.0875 106.1 95.9694 105.531 95.225 104.601L92.1015 107.099ZM98.9133 110.1C100.694 110.1 102.344 109.707 103.779 108.833L101.698 105.417C100.999 105.843 100.099 106.1 98.9133 106.1V110.1ZM103.786 108.828C105.231 107.939 106.317 106.669 107.051 105.096L103.426 103.404C102.993 104.331 102.412 104.977 101.69 105.422L103.786 108.828ZM104.659 106.164L110.609 107.964L111.767 104.136L105.817 102.336L104.659 106.164ZM109.347 105.268C108.469 107.337 107.135 108.903 105.331 110.028L107.446 113.422C109.975 111.847 111.841 109.629 113.029 106.832L109.347 105.268ZM105.325 110.031C103.501 111.176 101.497 111.75 99.2633 111.75V115.75C102.23 115.75 104.975 114.974 107.452 113.419L105.325 110.031ZM91.9633 101.175V96.625H87.9633V101.175H91.9633ZM89.9633 98.625H108.538V94.625H89.9633V98.625ZM106.538 96.625V101.175H110.538V96.625H106.538ZM108.538 99.175H89.9633V103.175H108.538V99.175ZM117.678 112.65L116.707 114.398L116.715 114.403L116.723 114.407L117.678 112.65ZM114.603 109.675L112.854 110.644L112.859 110.653L112.864 110.662L114.603 109.675ZM114.228 102.1L116.073 102.873L116.077 102.863L114.228 102.1ZM116.228 99.4L117.508 100.936L117.517 100.93L117.525 100.922L116.228 99.4ZM119.728 97.525L119.113 95.6219L119.101 95.6258L119.089 95.6298L119.728 97.525ZM123.528 96.575L123.149 94.6113L123.145 94.6121L123.528 96.575ZM128.278 95.8L128.55 97.7814L128.558 97.7803L128.566 97.7791L128.278 95.8ZM133.653 95L134.643 96.7377L133.353 93.0226L133.653 95ZM131.503 96.225L129.503 96.2071L129.472 99.684L132.493 97.9627L131.503 96.225ZM130.253 92.1L128.812 93.4868L130.253 92.1ZM122.428 91.625L123.323 93.4139L122.428 91.625ZM120.053 94.55L119.455 96.4583L121.343 97.0506L121.955 95.1687L120.053 94.55ZM114.553 92.825L112.633 92.2645L112.084 94.1466L113.955 94.7333L114.553 92.825ZM118.353 87.325L117.169 85.7131L117.162 85.7181L118.353 87.325ZM132.278 86.425L131.486 88.2616L131.492 88.2642L132.278 86.425ZM136.353 90.275L134.561 91.1627L134.566 91.1723L134.571 91.1819L136.353 90.275ZM137.228 93.2L135.238 93.399L135.238 93.4023L137.228 93.2ZM137.378 113V115H139.378V113H137.378ZM132.103 113H130.103V115H132.103V113ZM132.103 107.15L133.574 105.795L130.103 102.026V107.15H132.103ZM132.978 108.1L134.675 109.159L135.482 107.866L134.449 106.745L132.978 108.1ZM128.703 112.4L129.676 114.147L129.682 114.144L128.703 112.4ZM127.328 108.225L128.223 110.014L127.328 108.225ZM129.628 106.45L128.092 105.17L128.083 105.181L128.074 105.192L129.628 106.45ZM130.803 104.475L128.955 103.711L128.925 103.784L128.901 103.858L130.803 104.475ZM131.328 101.85L129.331 101.75L129.33 101.766L129.329 101.782L131.328 101.85ZM131.403 99.425L131.973 97.5079L129.403 96.7439V99.425H131.403ZM133.253 99.975L133.561 101.951L133.823 98.0579L133.253 99.975ZM128.578 100.725L128.249 98.7522L128.578 100.725ZM125.228 101.35L125.614 103.312L125.63 103.309L125.647 103.306L125.228 101.35ZM122.753 101.975L122.134 100.073L122.107 100.082L122.08 100.092L122.753 101.975ZM119.853 104L118.15 102.952L118.135 102.976L118.121 103.001L119.853 104ZM119.978 107.3L118.298 108.384L118.306 108.397L118.314 108.409L119.978 107.3ZM121.428 108.5L120.572 110.307L120.581 110.312L120.59 110.316L121.428 108.5ZM122.628 111.75C120.924 111.75 119.621 111.429 118.633 110.893L116.723 114.407C118.435 115.337 120.432 115.75 122.628 115.75V111.75ZM118.649 110.902C117.591 110.314 116.845 109.574 116.342 108.688L112.864 110.662C113.761 112.243 115.065 113.486 116.707 114.398L118.649 110.902ZM116.353 108.706C115.842 107.785 115.578 106.763 115.578 105.6H111.578C111.578 107.404 111.997 109.099 112.854 110.644L116.353 108.706ZM115.578 105.6C115.578 104.524 115.757 103.626 116.073 102.873L112.384 101.327C111.833 102.641 111.578 104.076 111.578 105.6H115.578ZM116.077 102.863C116.382 102.123 116.85 101.485 117.508 100.936L114.948 97.8636C113.806 98.8147 112.941 99.9773 112.379 101.337L116.077 102.863ZM117.525 100.922C118.186 100.36 119.11 99.8439 120.367 99.4202L119.089 95.6298C117.479 96.1727 116.071 96.9069 114.931 97.8775L117.525 100.922ZM120.343 99.4281C121.332 99.1086 122.518 98.8102 123.912 98.5379L123.145 94.6121C121.638 94.9065 120.291 95.2414 119.113 95.6219L120.343 99.4281ZM123.907 98.5387C125.334 98.2632 126.881 98.0105 128.55 97.7814L128.006 93.8186C126.275 94.0561 124.656 94.3202 123.149 94.6113L123.907 98.5387ZM128.566 97.7791C130.287 97.5285 132.083 97.2612 133.953 96.9774L133.353 93.0226C131.49 93.3054 129.702 93.5715 127.99 93.8209L128.566 97.7791ZM132.663 93.2623L130.513 94.4873L132.493 97.9627L134.643 96.7377L132.663 93.2623ZM133.503 96.2429C133.522 94.1208 133.058 92.1305 131.694 90.7132L128.812 93.4868C129.148 93.8362 129.518 94.5959 129.503 96.2071L133.503 96.2429ZM131.694 90.7132C130.285 89.2487 128.178 88.775 125.953 88.775V92.775C127.762 92.775 128.521 93.1846 128.812 93.4868L131.694 90.7132ZM125.953 88.775C124.413 88.775 122.933 89.1366 121.534 89.8361L123.323 93.4139C124.19 92.9801 125.06 92.775 125.953 92.775V88.775ZM121.534 89.8361C119.849 90.6783 118.74 92.1208 118.151 93.9313L121.955 95.1687C122.266 94.2126 122.74 93.7051 123.323 93.4139L121.534 89.8361ZM120.652 92.6417L115.152 90.9167L113.955 94.7333L119.455 96.4583L120.652 92.6417ZM116.473 93.3855C117.02 91.5104 118.037 90.0487 119.544 88.9319L117.162 85.7181C114.936 87.3679 113.419 89.5729 112.633 92.2645L116.473 93.3855ZM119.537 88.9369C120.972 87.8827 123.044 87.25 125.953 87.25V83.25C122.496 83.25 119.501 84.0006 117.169 85.7131L119.537 88.9369ZM125.953 87.25C128.137 87.25 129.967 87.6064 131.486 88.2615L133.07 84.5885C130.956 83.6769 128.569 83.25 125.953 83.25V87.25ZM131.492 88.2642C132.888 88.8607 133.889 89.8071 134.561 91.1627L138.145 89.3873C137.05 87.1762 135.334 85.556 133.064 84.5858L131.492 88.2642ZM134.571 91.1819C134.948 91.9244 135.164 92.6605 135.238 93.399L139.218 93.001C139.092 91.7395 138.725 90.5256 138.136 89.3681L134.571 91.1819ZM135.238 93.4023C135.33 94.3078 135.378 95.3142 135.378 96.425H139.378C139.378 95.2024 139.326 94.0589 139.218 92.9977L135.238 93.4023ZM135.378 96.425V113H139.378V96.425H135.378ZM137.378 111H132.103V115H137.378V111ZM134.103 113V107.15H130.103V113H134.103ZM130.632 108.505L131.507 109.455L134.449 106.745L133.574 105.795L130.632 108.505ZM131.281 107.041C130.203 108.77 129.005 109.937 127.724 110.656L129.682 114.144C131.668 113.03 133.32 111.33 134.675 109.159L131.281 107.041ZM127.73 110.653C126.49 111.343 124.825 111.75 122.628 111.75V115.75C125.298 115.75 127.683 115.257 129.676 114.147L127.73 110.653ZM123.828 110.95C125.425 110.95 126.915 110.668 128.223 110.014L126.434 106.436C125.808 106.749 124.964 106.95 123.828 106.95V110.95ZM128.223 110.014C129.394 109.428 130.404 108.67 131.183 107.708L128.074 105.192C127.719 105.63 127.195 106.055 126.434 106.436L128.223 110.014ZM131.165 107.73C131.85 106.908 132.402 106.028 132.706 105.092L128.901 103.858C128.804 104.155 128.573 104.592 128.092 105.17L131.165 107.73ZM132.652 105.239C133.075 104.214 133.287 103.097 133.327 101.918L129.329 101.782C129.303 102.57 129.165 103.203 128.955 103.711L132.652 105.239ZM133.326 101.95C133.376 100.934 133.403 100.089 133.403 99.425H129.403C129.403 99.9944 129.38 100.766 129.331 101.75L133.326 101.95ZM130.833 101.342L132.683 101.892L133.823 98.0579L131.973 97.5079L130.833 101.342ZM132.945 97.9989C131.124 98.2829 129.558 98.5341 128.249 98.7522L128.907 102.698C130.198 102.483 131.749 102.234 133.561 101.951L132.945 97.9989ZM128.249 98.7522C126.93 98.9722 125.781 99.1861 124.809 99.3944L125.647 103.306C126.542 103.114 127.627 102.911 128.907 102.698L128.249 98.7522ZM124.843 99.3875C123.85 99.5825 122.944 99.8095 122.134 100.073L123.372 103.877C123.996 103.674 124.74 103.484 125.614 103.312L124.843 99.3875ZM122.08 100.092C121.258 100.385 120.501 100.749 119.843 101.204L122.114 104.496C122.422 104.284 122.848 104.065 123.426 103.858L122.08 100.092ZM119.843 101.204C119.166 101.671 118.583 102.248 118.15 102.952L121.556 105.048C121.657 104.885 121.824 104.696 122.114 104.496L119.843 101.204ZM118.121 103.001C117.668 103.785 117.478 104.65 117.478 105.525H121.478C121.478 105.234 121.538 105.082 121.585 104.999L118.121 103.001ZM117.478 105.525C117.478 106.543 117.738 107.517 118.298 108.384L121.659 106.216C121.551 106.05 121.478 105.841 121.478 105.525H117.478ZM118.314 108.409C118.88 109.258 119.666 109.878 120.572 110.307L122.284 106.693C121.923 106.522 121.743 106.342 121.642 106.191L118.314 108.409ZM120.59 110.316C121.574 110.77 122.679 110.95 123.828 110.95V106.95C123.077 106.95 122.582 106.83 122.266 106.684L120.59 110.316ZM158.212 113L158.579 114.966L160.212 114.661V113H158.212ZM152.962 113.425L153.02 111.426L153.01 111.426L153.001 111.425L152.962 113.425ZM148.387 112.5L147.574 114.328L147.584 114.332L147.593 114.336L148.387 112.5ZM145.312 109.675L143.544 110.61L143.55 110.621L143.556 110.633L145.312 109.675ZM144.337 106.1L146.336 106.045L144.337 106.1ZM144.287 78.5V76.5H142.287V78.5H144.287ZM150.287 78.5H152.287V76.5H150.287V78.5ZM150.312 104.475L148.312 104.516L148.313 104.536L148.313 104.557L150.312 104.475ZM150.837 106.475L152.552 105.446L152.547 105.438L152.542 105.43L150.837 106.475ZM153.712 108.15L153.888 106.158L153.712 108.15ZM158.212 107.95H160.212V105.631L157.918 105.972L158.212 107.95ZM139.387 90.725H137.387V92.725H139.387V90.725ZM139.387 86V84H137.387V86H139.387ZM158.212 86H160.212V84H158.212V86ZM158.212 90.725V92.725H160.212V90.725H158.212ZM157.844 111.034C156.193 111.343 154.586 111.471 153.02 111.426L152.903 115.424C154.771 115.479 156.663 115.324 158.579 114.966L157.844 111.034ZM153.001 111.425C151.52 111.396 150.257 111.13 149.18 110.664L147.593 114.336C149.216 115.037 151.003 115.387 152.923 115.425L153.001 111.425ZM149.199 110.672C148.246 110.249 147.555 109.61 147.068 108.717L143.556 110.633C144.469 112.306 145.828 113.551 147.574 114.328L149.199 110.672ZM147.08 108.74C146.594 107.822 146.36 106.929 146.336 106.045L142.337 106.155C142.38 107.704 142.796 109.195 143.544 110.61L147.08 108.74ZM146.336 106.045C146.303 104.851 146.287 103.495 146.287 101.975H142.287C142.287 103.522 142.304 104.916 142.337 106.155L146.336 106.045ZM146.287 101.975V78.5H142.287V101.975H146.287ZM144.287 80.5H150.287V76.5H144.287V80.5ZM148.287 78.5V101.625H152.287V78.5H148.287ZM148.287 101.625C148.287 102.718 148.295 103.682 148.312 104.516L152.311 104.434C152.295 103.635 152.287 102.699 152.287 101.625H148.287ZM148.313 104.557C148.356 105.6 148.585 106.629 149.132 107.52L152.542 105.43C152.455 105.288 152.334 104.983 152.31 104.393L148.313 104.557ZM149.122 107.504C150.098 109.132 151.679 109.978 153.535 110.142L153.888 106.158C153.111 106.089 152.775 105.818 152.552 105.446L149.122 107.504ZM153.535 110.142C155.046 110.276 156.709 110.195 158.506 109.928L157.918 105.972C156.348 106.205 155.011 106.257 153.888 106.158L153.535 110.142ZM156.212 107.95V113H160.212V107.95H156.212ZM141.387 90.725V86H137.387V90.725H141.387ZM139.387 88H158.212V84H139.387V88ZM156.212 86V90.725H160.212V86H156.212ZM158.212 88.725H139.387V92.725H158.212V88.725ZM177.002 111.4L175.952 113.102L175.96 113.107L177.002 111.4ZM171.077 104.8L169.278 105.673L169.282 105.682L171.077 104.8ZM171.077 85.2L169.282 84.3183L169.278 84.3269L171.077 85.2ZM177.002 78.625L178.044 80.3321L178.052 80.3272L177.002 78.625ZM196.627 79.375L195.424 80.9727L195.43 80.9773L196.627 79.375ZM202.452 87.75L202.984 89.6781L204.988 89.1256L204.359 87.1447L202.452 87.75ZM196.377 89.425L194.461 89.996L195.02 91.8739L196.909 91.3531L196.377 89.425ZM192.802 83.925L191.561 85.4928L191.57 85.5003L192.802 83.925ZM180.202 83.55L179.089 81.8885L179.081 81.8939L180.202 83.55ZM176.577 88.125L174.73 87.358L174.727 87.3659L176.577 88.125ZM175.352 95L173.352 94.9873V95H175.352ZM176.552 101.9L174.7 102.654L174.704 102.663L174.708 102.673L176.552 101.9ZM180.202 106.45L181.316 104.789L180.202 106.45ZM192.802 106.075L191.561 104.507L192.802 106.075ZM196.377 100.575L196.909 98.6469L195.024 98.1271L194.462 100L196.377 100.575ZM202.452 102.25L204.359 102.855L204.988 100.874L202.984 100.322L202.452 102.25ZM196.627 110.65L197.824 112.252L197.83 112.248L196.627 110.65ZM186.252 111.75C182.947 111.75 180.24 111.033 178.044 109.693L175.96 113.107C178.898 114.9 182.358 115.75 186.252 115.75V111.75ZM178.052 109.698C175.82 108.321 174.097 106.411 172.873 103.918L169.282 105.682C170.825 108.822 173.052 111.313 175.952 113.102L178.052 109.698ZM172.877 103.927C171.665 101.429 171.027 98.4703 171.027 95H167.027C167.027 98.963 167.757 102.538 169.278 105.673L172.877 103.927ZM171.027 95C171.027 91.5297 171.665 88.5713 172.877 86.0731L169.278 84.3269C167.757 87.462 167.027 91.037 167.027 95H171.027ZM172.873 86.0817C174.096 83.5905 175.817 81.6919 178.044 80.3321L175.96 76.9179C173.055 78.6914 170.825 81.1762 169.282 84.3183L172.873 86.0817ZM178.052 80.3272C180.247 78.9734 182.951 78.25 186.252 78.25V74.25C182.354 74.25 178.891 75.1099 175.952 76.9228L178.052 80.3272ZM186.252 78.25C190.057 78.25 193.069 79.1991 195.424 80.9727L197.83 77.7773C194.652 75.3842 190.748 74.25 186.252 74.25V78.25ZM195.43 80.9773C197.839 82.7764 199.547 85.2081 200.546 88.3553L204.359 87.1447C203.125 83.2586 200.949 80.107 197.824 77.7727L195.43 80.9773ZM201.921 85.8219L195.846 87.4969L196.909 91.3531L202.984 89.6781L201.921 85.8219ZM198.294 88.854C197.494 86.1671 196.091 83.9584 194.035 82.3497L191.57 85.5003C192.88 86.5249 193.861 87.9829 194.461 89.996L198.294 88.854ZM194.044 82.3572C191.927 80.6801 189.271 79.925 186.252 79.925V83.925C188.6 83.925 190.311 84.5033 191.561 85.4928L194.044 82.3572ZM186.252 79.925C183.536 79.925 181.107 80.5364 179.089 81.8885L181.316 85.2115C182.531 84.3969 184.136 83.925 186.252 83.925V79.925ZM179.081 81.8939C177.125 83.2185 175.681 85.0687 174.73 87.358L178.424 88.892C179.107 87.2479 180.08 86.0482 181.324 85.2061L179.081 81.8939ZM174.727 87.3659C173.809 89.6038 173.37 92.1595 173.352 94.9873L177.352 95.0127C177.368 92.5738 177.746 90.5462 178.428 88.8841L174.727 87.3659ZM173.352 95C173.352 97.8316 173.782 100.398 174.7 102.654L178.405 101.146C177.723 99.469 177.352 97.435 177.352 95H173.352ZM174.708 102.673C175.662 104.952 177.119 106.791 179.089 108.111L181.316 104.789C180.053 103.942 179.076 102.748 178.397 101.127L174.708 102.673ZM179.089 108.111C181.107 109.464 183.536 110.075 186.252 110.075V106.075C184.136 106.075 182.531 105.603 181.316 104.789L179.089 108.111ZM186.252 110.075C189.271 110.075 191.927 109.32 194.044 107.643L191.561 104.507C190.311 105.497 188.6 106.075 186.252 106.075V110.075ZM194.044 107.643C196.09 106.022 197.492 103.821 198.293 101.15L194.462 100C193.863 101.996 192.881 103.461 191.561 104.507L194.044 107.643ZM195.846 102.503L201.921 104.178L202.984 100.322L196.909 98.6469L195.846 102.503ZM200.546 101.645C199.546 104.793 197.837 107.236 195.424 109.052L197.83 112.248C200.951 109.898 203.125 106.74 204.359 102.855L200.546 101.645ZM195.43 109.048C193.075 110.807 190.06 111.75 186.252 111.75V115.75C190.744 115.75 194.647 114.626 197.824 112.252L195.43 109.048ZM211.291 111.925L212.325 110.213L211.291 111.925ZM206.591 106.9L204.811 107.811L204.815 107.819L204.819 107.827L206.591 106.9ZM206.641 92.05L204.875 91.1117L206.641 92.05ZM211.366 87.05L210.344 85.3313L211.366 87.05ZM225.466 87.075L226.5 85.3625L225.466 87.075ZM230.166 92.125L228.392 93.0468L228.394 93.0525L230.166 92.125ZM230.141 106.925L228.372 105.992L228.369 105.998L230.141 106.925ZM225.441 111.95L226.464 113.669L226.475 113.662L225.441 111.95ZM223.716 105.7L222.1 104.522L223.716 105.7ZM223.691 93.25L222.095 94.4554L222.102 94.4636L223.691 93.25ZM214.366 92L215.506 93.6434L215.512 93.6397L214.366 92ZM212.066 95.025L213.93 95.7511L213.933 95.743L212.066 95.025ZM213.091 105.775L211.495 106.98L211.503 106.99L211.51 106.999L213.091 105.775ZM218.366 111.75C215.976 111.75 213.986 111.215 212.325 110.213L210.258 113.637C212.63 115.068 215.357 115.75 218.366 115.75V111.75ZM212.325 110.213C210.629 109.189 209.314 107.789 208.363 105.973L204.819 107.827C206.102 110.278 207.921 112.227 210.258 113.637L212.325 110.213ZM208.372 105.989C207.437 104.161 206.941 102.015 206.941 99.5H202.941C202.941 102.552 203.546 105.339 204.811 107.811L208.372 105.989ZM206.941 99.5C206.941 96.9372 207.452 94.7865 208.408 92.9883L204.875 91.1117C203.564 93.5802 202.941 96.3961 202.941 99.5H206.941ZM208.408 92.9883C209.375 91.1683 210.697 89.7758 212.389 88.7687L210.344 85.3313C208.003 86.7242 206.175 88.6651 204.875 91.1117L208.408 92.9883ZM212.389 88.7687C214.058 87.7757 216.029 87.25 218.366 87.25V83.25C215.404 83.25 212.708 83.9243 210.344 85.3313L212.389 88.7687ZM218.366 87.25C220.776 87.25 222.774 87.7863 224.433 88.7875L226.5 85.3625C224.126 83.9304 221.39 83.25 218.366 83.25V87.25ZM224.433 88.7875C226.125 89.8083 227.439 91.2138 228.392 93.0468L231.941 91.2032C230.66 88.7362 228.841 86.7751 226.5 85.3625L224.433 88.7875ZM228.394 93.0525C229.34 94.8579 229.841 96.9891 229.841 99.5H233.841C233.841 96.4442 233.227 93.6587 231.938 91.1975L228.394 93.0525ZM229.841 99.5C229.841 102.025 229.332 104.171 228.372 105.992L231.911 107.858C233.217 105.379 233.841 102.575 233.841 99.5H229.841ZM228.369 105.998C227.419 107.814 226.104 109.214 224.408 110.238L226.475 113.662C228.812 112.252 230.631 110.303 231.913 107.852L228.369 105.998ZM224.419 110.231C222.756 111.221 220.762 111.75 218.366 111.75V115.75C221.371 115.75 224.094 115.079 226.464 113.669L224.419 110.231ZM218.366 110.1C221.253 110.1 223.708 109.107 225.332 106.878L222.1 104.522C221.392 105.493 220.28 106.1 218.366 106.1V110.1ZM225.332 106.878C226.811 104.851 227.466 102.338 227.466 99.5H223.466C223.466 101.729 222.956 103.349 222.1 104.522L225.332 106.878ZM227.466 99.5C227.466 96.5936 226.809 94.0372 225.281 92.0364L222.102 94.4636C222.941 95.5628 223.466 97.1731 223.466 99.5H227.466ZM225.287 92.0446C223.647 89.8725 221.216 88.9 218.366 88.9V92.9C220.25 92.9 221.369 93.4942 222.095 94.4554L225.287 92.0446ZM218.366 88.9C216.448 88.9 214.686 89.3375 213.221 90.3603L215.512 93.6397C216.147 93.1959 217.052 92.9 218.366 92.9V88.9ZM213.227 90.3566C211.829 91.3262 210.828 92.6746 210.2 94.307L213.933 95.743C214.305 94.7754 214.838 94.1071 215.506 93.6434L213.227 90.3566ZM210.203 94.2989C209.594 95.8609 209.316 97.6079 209.316 99.5H213.316C213.316 97.9921 213.539 96.7557 213.93 95.7511L210.203 94.2989ZM209.316 99.5C209.316 102.408 209.975 104.967 211.495 106.98L214.687 104.57C213.841 103.45 213.316 101.826 213.316 99.5H209.316ZM211.51 106.999C213.16 109.131 215.557 110.1 218.366 110.1V106.1C216.542 106.1 215.423 105.519 214.673 104.551L211.51 106.999ZM240.175 111.875L241.294 110.218L240.175 111.875ZM235.875 106.775L234.067 107.63L235.875 106.775ZM235.875 92.2L234.072 91.3336L234.069 91.3396L235.875 92.2ZM240.25 87.125L241.345 88.7982L241.356 88.7914L240.25 87.125ZM253.35 87.125L252.18 88.7472L252.189 88.7535L252.197 88.7598L253.35 87.125ZM257.325 106.775L259.169 107.547L259.172 107.542L257.325 106.775ZM253.3 111.875L254.448 113.513L253.3 111.875ZM251.5 107.25L252.695 108.853L252.7 108.85L251.5 107.25ZM253.675 104.125L251.787 103.464L251.783 103.475L251.78 103.485L253.675 104.125ZM253.675 94.875L251.78 95.5146L251.784 95.5289L251.79 95.5431L253.675 94.875ZM251.55 91.775L250.324 93.3552L250.332 93.3618L250.341 93.3684L251.55 91.775ZM243.8 91.85L244.996 93.453L245.004 93.447L245.012 93.4409L243.8 91.85ZM241.475 95.05L243.347 95.7523L243.35 95.7446L241.475 95.05ZM241.45 104L239.567 104.674L239.572 104.688L239.577 104.702L241.45 104ZM243.725 107.175L242.504 108.759L243.725 107.175ZM254.375 113H252.375V115H254.375V113ZM254.375 94.05H256.375V92.05H254.375V94.05ZM253.625 94.05H251.625V96.05H253.625V94.05ZM253.625 77V75H251.625V77H253.625ZM259.7 77H261.7V75H259.7V77ZM259.7 113V115H261.7V113H259.7ZM246.675 111.75C244.544 111.75 242.777 111.22 241.294 110.218L239.055 113.532C241.272 115.03 243.839 115.75 246.675 115.75V111.75ZM241.294 110.218C239.761 109.182 238.556 107.768 237.683 105.92L234.067 107.63C235.226 110.082 236.888 112.068 239.055 113.532L241.294 110.218ZM237.683 105.92C236.808 104.071 236.35 101.944 236.35 99.5H232.35C232.35 102.456 232.907 105.179 234.067 107.63L237.683 105.92ZM236.35 99.5C236.35 97.0179 236.81 94.8859 237.68 93.0604L234.069 91.3396C232.906 93.7807 232.35 96.5155 232.35 99.5H236.35ZM237.677 93.0664C238.563 91.2243 239.785 89.8199 241.345 88.7982L239.154 85.4518C236.947 86.8968 235.253 88.8757 234.072 91.3336L237.677 93.0664ZM241.356 88.7914C242.87 87.7861 244.691 87.25 246.9 87.25V83.25C244.008 83.25 241.396 83.9639 239.144 85.4586L241.356 88.7914ZM246.9 87.25C249.133 87.25 250.851 87.7889 252.18 88.7472L254.519 85.5028C252.382 83.9611 249.8 83.25 246.9 83.25V87.25ZM252.197 88.7598C253.613 89.7574 254.712 91.1373 255.48 92.9723L259.169 91.4277C258.138 88.9627 256.586 86.9593 254.502 85.4902L252.197 88.7598ZM255.48 92.9723C256.262 94.8406 256.675 97.0051 256.675 99.5H260.675C260.675 96.5615 260.187 93.8594 259.169 91.4277L255.48 92.9723ZM256.675 99.5C256.675 101.958 256.263 104.117 255.478 106.008L259.172 107.542C260.186 105.1 260.675 102.409 260.675 99.5H256.675ZM255.48 106.003C254.715 107.83 253.604 109.219 252.152 110.237L254.448 113.513C256.562 112.031 258.134 110.02 259.169 107.547L255.48 106.003ZM252.152 110.237C250.77 111.206 248.985 111.75 246.675 111.75V115.75C249.631 115.75 252.263 115.044 254.448 113.513L252.152 110.237ZM247.6 110.35C249.511 110.35 251.271 109.915 252.695 108.853L250.304 105.647C249.761 106.051 248.922 106.35 247.6 106.35V110.35ZM252.7 108.85C254.063 107.828 255.007 106.431 255.57 104.765L251.78 103.485C251.442 104.486 250.936 105.172 250.3 105.65L252.7 108.85ZM255.562 104.786C256.119 103.196 256.375 101.423 256.375 99.5H252.375C252.375 101.077 252.164 102.387 251.787 103.464L255.562 104.786ZM256.375 99.5C256.375 97.5633 256.12 95.7863 255.56 94.2069L251.79 95.5431C252.163 96.597 252.375 97.9034 252.375 99.5H256.375ZM255.57 94.2354C255.013 92.5849 254.093 91.1939 252.758 90.1816L250.341 93.3684C250.94 93.8227 251.437 94.4984 251.78 95.5146L255.57 94.2354ZM252.776 90.1948C251.377 89.11 249.662 88.65 247.8 88.65V92.65C249.003 92.65 249.789 92.94 250.324 93.3552L252.776 90.1948ZM247.8 88.65C245.846 88.65 244.058 89.1385 242.588 90.2591L245.012 93.4409C245.641 92.9615 246.52 92.65 247.8 92.65V88.65ZM242.604 90.247C241.214 91.2838 240.219 92.6805 239.599 94.3554L243.35 95.7446C243.73 94.7195 244.285 93.9829 244.996 93.453L242.604 90.247ZM239.602 94.3478C239.006 95.9361 238.725 97.6616 238.725 99.5H242.725C242.725 98.0717 242.943 96.8306 243.347 95.7522L239.602 94.3478ZM238.725 99.5C238.725 101.346 238.995 103.078 239.567 104.674L243.333 103.326C242.937 102.222 242.725 100.954 242.725 99.5H238.725ZM239.577 104.702C240.193 106.345 241.16 107.724 242.504 108.759L244.945 105.591C244.256 105.059 243.706 104.321 243.322 103.298L239.577 104.702ZM242.504 108.759C243.942 109.867 245.691 110.35 247.6 110.35V106.35C246.375 106.35 245.54 106.049 244.945 105.591L242.504 108.759ZM256.375 113V94.05H252.375V113H256.375ZM254.375 92.05H253.625V96.05H254.375V92.05ZM255.625 94.05V77H251.625V94.05H255.625ZM253.625 79H259.7V75H253.625V79ZM257.7 77V113H261.7V77H257.7ZM259.7 111H254.375V115H259.7V111ZM270.284 111.975L271.278 110.239L270.284 111.975ZM265.434 107.05L263.68 108.011L263.686 108.021L265.434 107.05ZM265.409 92.125L267.181 93.052L267.184 93.0464L265.409 92.125ZM270.134 87.05L269.111 85.3313L270.134 87.05ZM284.259 87.225L283.14 88.8825L283.148 88.888L283.156 88.8934L284.259 87.225ZM288.634 92.75L286.776 93.4905L288.634 92.75ZM289.709 101.175V103.175H291.57L291.704 101.319L289.709 101.175ZM283.734 101.175H281.734V103.175H283.734V101.175ZM283.734 98.975H285.734L285.734 98.9636L283.734 98.975ZM282.184 92.55L283.782 91.3468L282.184 92.55ZM271.884 92.825L273.452 94.066L273.459 94.0576L271.884 92.825ZM271.884 105.85L270.322 107.099L271.884 105.85ZM280.959 107.125L282 108.833L282.007 108.828L280.959 107.125ZM283.459 104.25L284.038 102.336L282.379 101.834L281.647 103.404L283.459 104.25ZM289.409 106.05L291.25 106.832L292.121 104.781L289.988 104.136L289.409 106.05ZM284.609 111.725L283.551 110.028L283.545 110.031L284.609 111.725ZM268.184 101.175H266.184V103.175H268.184V101.175ZM268.184 96.625V94.625H266.184V96.625H268.184ZM286.759 96.625H288.759V94.625H286.759V96.625ZM286.759 101.175V103.175H288.759V101.175H286.759ZM277.484 111.75C275.047 111.75 273 111.225 271.278 110.239L269.29 113.711C271.702 115.091 274.454 115.75 277.484 115.75V111.75ZM271.278 110.239C269.531 109.239 268.173 107.863 267.182 106.079L263.686 108.021C265.028 110.437 266.904 112.344 269.29 113.711L271.278 110.239ZM267.188 106.089C266.221 104.323 265.709 102.246 265.709 99.8H261.709C261.709 102.821 262.347 105.577 263.68 108.011L267.188 106.089ZM265.709 99.8C265.709 97.1068 266.225 94.8793 267.181 93.052L263.637 91.198C262.326 93.7041 261.709 96.5932 261.709 99.8H265.709ZM267.184 93.0464C268.154 91.177 269.476 89.7688 271.157 88.7687L269.111 85.3313C266.759 86.7312 264.93 88.7063 263.634 91.2036L267.184 93.0464ZM271.157 88.7687C272.826 87.7757 274.796 87.25 277.134 87.25V83.25C274.172 83.25 271.476 83.9243 269.111 85.3313L271.157 88.7687ZM277.134 87.25C279.612 87.25 281.579 87.8287 283.14 88.8825L285.378 85.5675C283.039 83.988 280.256 83.25 277.134 83.25V87.25ZM283.156 88.8934C284.752 89.9484 285.963 91.4512 286.776 93.4905L290.492 92.0095C289.405 89.2822 287.699 87.1016 285.362 85.5566L283.156 88.8934ZM286.776 93.4905C287.589 95.5292 287.931 98.022 287.714 101.031L291.704 101.319C291.953 97.8614 291.579 94.7374 290.492 92.0095L286.776 93.4905ZM289.709 99.175H283.734V103.175H289.709V99.175ZM285.734 101.175V98.975H281.734V101.175H285.734ZM285.734 98.9636C285.716 95.8828 285.187 93.2129 283.782 91.3468L280.586 93.7532C281.214 94.5871 281.718 96.2005 281.734 98.9864L285.734 98.9636ZM283.782 91.3468C282.281 89.3538 279.995 88.525 277.384 88.525V92.525C279.14 92.525 280.054 93.0462 280.586 93.7532L283.782 91.3468ZM277.384 88.525C274.482 88.525 271.987 89.4488 270.309 91.5924L273.459 94.0576C274.181 93.1346 275.353 92.525 277.384 92.525V88.525ZM270.316 91.584C268.724 93.5955 268.084 96.3379 268.084 99.5H272.084C272.084 96.7954 272.644 95.0879 273.452 94.066L270.316 91.584ZM268.084 99.5C268.084 102.5 268.74 105.122 270.322 107.099L273.446 104.601C272.628 103.578 272.084 101.967 272.084 99.5H268.084ZM270.322 107.099C271.978 109.169 274.36 110.1 277.134 110.1V106.1C275.308 106.1 274.19 105.531 273.446 104.601L270.322 107.099ZM277.134 110.1C278.915 110.1 280.565 109.707 282 108.833L279.918 105.417C279.22 105.843 278.32 106.1 277.134 106.1V110.1ZM282.007 108.828C283.452 107.939 284.537 106.669 285.271 105.096L281.647 103.404C281.214 104.331 280.633 104.977 279.911 105.422L282.007 108.828ZM282.88 106.164L288.83 107.964L289.988 104.136L284.038 102.336L282.88 106.164ZM287.568 105.268C286.689 107.337 285.356 108.903 283.551 110.028L285.667 113.422C288.195 111.847 290.062 109.629 291.25 106.832L287.568 105.268ZM283.545 110.031C281.722 111.176 279.717 111.75 277.484 111.75V115.75C280.451 115.75 283.196 114.974 285.673 113.419L283.545 110.031ZM270.184 101.175V96.625H266.184V101.175H270.184ZM268.184 98.625H286.759V94.625H268.184V98.625ZM284.759 96.625V101.175H288.759V96.625H284.759ZM286.759 99.175H268.184V103.175H286.759V99.175ZM302.887 77V75H301.351L300.955 76.4847L302.887 77ZM308.937 77L310.87 77.5153L311.54 75H308.937V77ZM299.337 113V115H300.874L301.27 113.515L299.337 113ZM293.287 113L291.355 112.485L290.684 115H293.287V113ZM302.887 79H308.937V75H302.887V79ZM307.005 76.4847L297.405 112.485L301.27 113.515L310.87 77.5153L307.005 76.4847ZM299.337 111H293.287V115H299.337V111ZM295.22 113.515L304.82 77.5153L300.955 76.4847L291.355 112.485L295.22 113.515ZM323.268 109.25L321.854 110.664L323.267 112.077L324.681 110.666L323.268 109.25ZM319.543 105.525L318.15 104.09L316.693 105.504L318.129 106.939L319.543 105.525ZM328.068 97.25L329.461 98.6851L330.939 97.25L329.461 95.8149L328.068 97.25ZM319.543 88.975L318.129 87.5608L316.693 88.9962L318.15 90.4101L319.543 88.975ZM323.268 85.25L324.681 83.8343L323.267 82.423L321.854 83.8358L323.268 85.25ZM335.293 97.25L336.706 98.6657L338.124 97.25L336.706 95.8343L335.293 97.25ZM324.682 107.836L320.957 104.111L318.129 106.939L321.854 110.664L324.682 107.836ZM320.936 106.96L329.461 98.6851L326.675 95.8149L318.15 104.09L320.936 106.96ZM329.461 95.8149L320.936 87.5399L318.15 90.4101L326.675 98.6851L329.461 95.8149ZM320.957 90.3892L324.682 86.6642L321.854 83.8358L318.129 87.5608L320.957 90.3892ZM321.855 86.6657L333.88 98.6657L336.706 95.8343L324.681 83.8343L321.855 86.6657ZM333.88 95.8343L321.855 107.834L324.681 110.666L336.706 98.6657L333.88 95.8343Z" fill="#8257E5"/>
</g>
<defs>
<filter id="filter0_d_317_227" x="21.5" y="16.25" width="298.659" height="45.5" filterUnits="userSpaceOnUse" color-interpolation-filters="sRGB">
<feFlood flood-opacity="0" result="BackgroundImageFix"/>
<feColorMatrix in="SourceAlpha" type="matrix" values="0 0 0 0 0 0 0 0 0 0 0 0 0 0 0 0 0 0 127 0" result="hardAlpha"/>
<feOffset dy="4"/>
<feGaussianBlur stdDeviation="2"/>
<feComposite in2="hardAlpha" operator="out"/>
<feColorMatrix type="matrix" values="0 0 0 0 0 0 0 0 0 0 0 0 0 0 0 0 0 0 0.25 0"/>
<feBlend mode="normal" in2="BackgroundImageFix" result="effect1_dropShadow_317_227"/>
<feBlend mode="normal" in="SourceGraphic" in2="effect1_dropShadow_317_227" result="shape"/>
</filter>
<filter id="filter1_d_317_227" x="3" y="76.25" width="336.293" height="45.5" filterUnits="userSpaceOnUse" color-interpolation-filters="sRGB">
<feFlood flood-opacity="0" result="BackgroundImageFix"/>
<feColorMatrix in="SourceAlpha" type="matrix" values="0 0 0 0 0 0 0 0 0 0 0 0 0 0 0 0 0 0 127 0" result="hardAlpha"/>
<feOffset dy="4"/>
<feGaussianBlur stdDeviation="2"/>
<feComposite in2="hardAlpha" operator="out"/>
<feColorMatrix type="matrix" values="0 0 0 0 0 0 0 0 0 0 0 0 0 0 0 0 0 0 0.25 0"/>
<feBlend mode="normal" in2="BackgroundImageFix" result="effect1_dropShadow_317_227"/>
<feBlend mode="normal" in="SourceGraphic" in2="effect1_dropShadow_317_227" result="shape"/>
</filter>
</defs>
</svg>
